<svg xmlns="http://www.w3.org/2000/svg" version="1.1" xmlns:xlink="http://www.w3.org/1999/xlink" xmlns:svgjs="http://svgjs.com/svgjs" width="256" height="256"><svg version="1.1" xmlns="http://www.w3.org/2000/svg" width="256" height="256">
<path d="M0 0 C84.48 0 168.96 0 256 0 C256 84.48 256 168.96 256 256 C171.52 256 87.04 256 0 256 C0 171.52 0 87.04 0 0 Z " fill="#FFC90E" transform="translate(0,0)"></path>
<path d="M0 0 C71.8615917 0 71.8615917 0 87 14 C98.02467016 26.19488655 99.15133633 41.10038192 99.16796875 56.796875 C99.17296135 58.46281708 99.17296135 58.46281708 99.17805481 60.16241455 C99.1830946 62.5021524 99.18546405 64.84189736 99.18530273 67.18164062 C99.18748484 70.72538342 99.20566049 74.26881231 99.22460938 77.8125 C99.32208156 116.47368199 99.32208156 116.47368199 85 131 C63.22180466 149.85821385 22.32018942 142 0 142 C0 95.14 0 48.28 0 0 Z M14 14 C14 51.95 14 89.9 14 129 C46.89345718 131.90043081 46.89345718 131.90043081 76 120 C84.54293975 110.59903574 85.46540059 98.38670903 85.3984375 86.21875 C85.40130768 85.04340698 85.40417786 83.86806396 85.40713501 82.65710449 C85.40916245 80.18985508 85.40372588 77.7225891 85.39111328 75.25537109 C85.37504171 71.50972052 85.39100838 67.76514884 85.41015625 64.01953125 C85.40817359 61.60676849 85.40432943 59.19400638 85.3984375 56.78125 C85.40451019 55.67777222 85.41058289 54.57429443 85.4168396 53.43737793 C85.30911149 41.3447546 83.1919688 30.36185783 74.51171875 21.4765625 C58.79629432 8.60785267 29.95414011 14 14 14 Z " fill="#FF7F27" transform="translate(76,60)"></path>
</svg><style>@media (prefers-color-scheme: light) { :root { filter: none; } }
</style></svg>